<svg width="59" height="59" viewBox="0 0 59 59" fill="none" xmlns="http://www.w3.org/2000/svg">
<path d="M29.1243 0.5L56.8231 20.5385L46.2431 52.9615H12.0055L1.42544 20.5385L29.1243 0.5Z" fill="#61529D"/>
<path d="M35.3955 34.7383H33.0752V38.5H30.3564V34.7383H22.5635V32.6523L30.3916 21.3203H33.0752V32.4531H35.3955V34.7383ZM30.3564 32.4531V28.1992C30.3564 27.8477 30.3604 27.4922 30.3682 27.1328C30.3838 26.7656 30.3994 26.4141 30.415 26.0781C30.4307 25.7422 30.4463 25.4336 30.4619 25.1523C30.4775 24.8633 30.4893 24.625 30.4971 24.4375H30.4033C30.2549 24.75 30.0908 25.0703 29.9111 25.3984C29.7314 25.7188 29.54 26.0312 29.3369 26.3359L25.1182 32.4531H30.3564Z" fill="white"/>
</svg>
