<svg width="59" height="59" viewBox="0 0 59 59" fill="none" xmlns="http://www.w3.org/2000/svg">
<path d="M29.1243 0.5L56.8231 20.5385L46.2431 52.9615H12.0055L1.42544 20.5385L29.1243 0.5Z" fill="#61529D"/>
<path d="M28.9971 27.7891C30.0986 27.7891 31.0674 27.9883 31.9033 28.3867C32.7471 28.7773 33.4033 29.3555 33.8721 30.1211C34.3408 30.8789 34.5752 31.8086 34.5752 32.9102C34.5752 34.1133 34.3213 35.1523 33.8135 36.0273C33.3057 36.8945 32.5596 37.5625 31.5752 38.0312C30.5908 38.5 29.3916 38.7344 27.9775 38.7344C27.0791 38.7344 26.2393 38.6562 25.458 38.5C24.6846 38.3438 24.0166 38.1094 23.4541 37.7969V35.3125C24.04 35.6406 24.7432 35.9102 25.5635 36.1211C26.3838 36.3242 27.1689 36.4258 27.9189 36.4258C28.7158 36.4258 29.3994 36.3086 29.9697 36.0742C30.54 35.8398 30.9775 35.4805 31.2822 34.9961C31.5947 34.5117 31.751 33.8984 31.751 33.1562C31.751 32.1719 31.4346 31.4141 30.8018 30.8828C30.1768 30.3438 29.1963 30.0742 27.8604 30.0742C27.3916 30.0742 26.8916 30.1172 26.3604 30.2031C25.8369 30.2812 25.3994 30.3672 25.0479 30.4609L23.8408 29.7461L24.4854 21.3672H33.3916V23.793H26.9111L26.5361 28.0586C26.8174 27.9961 27.1533 27.9375 27.5439 27.8828C27.9346 27.8203 28.4189 27.7891 28.9971 27.7891Z" fill="white"/>
</svg>
