<svg width="59" height="59" viewBox="0 0 59 59" fill="none" xmlns="http://www.w3.org/2000/svg">
<path d="M29.1243 0.5L56.8231 20.5385L46.2431 52.9615H12.0055L1.42544 20.5385L29.1243 0.5Z" fill="#61529D"/>
<path d="M34.1182 25.2812C34.1182 26.0547 33.9619 26.7266 33.6494 27.2969C33.3369 27.8672 32.9072 28.3359 32.3604 28.7031C31.8213 29.0625 31.1963 29.3203 30.4854 29.4766V29.5586C31.8525 29.7305 32.8838 30.1602 33.5791 30.8477C34.2822 31.5352 34.6338 32.4453 34.6338 33.5781C34.6338 34.5703 34.3955 35.457 33.9189 36.2383C33.4424 37.0117 32.7119 37.6211 31.7275 38.0664C30.7432 38.5117 29.4775 38.7344 27.9307 38.7344C27.001 38.7344 26.1377 38.6602 25.3408 38.5117C24.5518 38.3633 23.8018 38.125 23.0908 37.7969V35.3477C23.8174 35.707 24.5908 35.9844 25.4111 36.1797C26.2314 36.375 27.0088 36.4727 27.7432 36.4727C29.1729 36.4727 30.1924 36.207 30.8018 35.6758C31.4111 35.1367 31.7158 34.3945 31.7158 33.4492C31.7158 32.8398 31.5557 32.3398 31.2354 31.9492C30.9229 31.5586 30.4346 31.2656 29.7705 31.0703C29.1143 30.875 28.2666 30.7773 27.2275 30.7773H25.7158V28.5625H27.2393C28.2314 28.5625 29.0283 28.4453 29.6299 28.2109C30.2314 27.9688 30.665 27.6367 30.9307 27.2148C31.2041 26.793 31.3408 26.3008 31.3408 25.7383C31.3408 25.0039 31.1025 24.4336 30.626 24.0273C30.1494 23.6133 29.4424 23.4062 28.5049 23.4062C27.9268 23.4062 27.3994 23.4727 26.9229 23.6055C26.4541 23.7383 26.0205 23.9062 25.6221 24.1094C25.2236 24.3125 24.8447 24.5312 24.4854 24.7656L23.1611 22.8555C23.8096 22.3711 24.583 21.9609 25.4814 21.625C26.3799 21.2891 27.4268 21.1211 28.6221 21.1211C30.3799 21.1211 31.7354 21.5 32.6885 22.2578C33.6416 23.0078 34.1182 24.0156 34.1182 25.2812Z" fill="white"/>
</svg>
