<svg width="59" height="59" viewBox="0 0 59 59" fill="none" xmlns="http://www.w3.org/2000/svg">
<path d="M29.1243 0.5L56.8231 20.5385L46.2431 52.9615H12.0055L1.42544 20.5385L29.1243 0.5Z" fill="#61529D"/>
<path d="M34.7744 38.5H23.1729V36.4258L27.6143 31.9258C28.4736 31.0508 29.1807 30.2969 29.7354 29.6641C30.29 29.0234 30.7002 28.418 30.9658 27.8477C31.2393 27.2773 31.376 26.6562 31.376 25.9844C31.376 25.1562 31.1377 24.5312 30.6611 24.1094C30.1846 23.6797 29.5557 23.4648 28.7744 23.4648C28.0322 23.4648 27.3447 23.6133 26.7119 23.9102C26.0869 24.1992 25.4385 24.6133 24.7666 25.1523L23.2549 23.3359C23.7314 22.9297 24.2393 22.5586 24.7783 22.2227C25.3252 21.8867 25.9346 21.6211 26.6064 21.4258C27.2783 21.2227 28.0439 21.1211 28.9033 21.1211C29.9893 21.1211 30.9268 21.3164 31.7158 21.707C32.5049 22.0898 33.1104 22.625 33.5322 23.3125C33.9619 24 34.1768 24.8008 34.1768 25.7148C34.1768 26.6367 33.9932 27.4883 33.626 28.2695C33.2588 29.0508 32.7354 29.8242 32.0557 30.5898C31.376 31.3477 30.5674 32.1719 29.6299 33.0625L26.665 35.957V36.0859H34.7744V38.5Z" fill="white"/>
</svg>
